<mxfile host="65bd71144e">
    <diagram id="Ht1M8jgEwFfnCIfOTk4-" name="Page-1">
        <mxGraphModel dx="635" dy="653" grid="1" gridSize="10" guides="1" tooltips="1" connect="1" arrows="1" fold="1" page="1" pageScale="1" pageWidth="1169" pageHeight="827" background="#FFFFFF" math="0" shadow="0">
            <root>
                <mxCell id="0"/>
                <mxCell id="1" parent="0"/>
                <mxCell id="6X5Q5hGxG2Q4SLFNHHvZ-3" value="VPC" style="points=[[0,0],[0.25,0],[0.5,0],[0.75,0],[1,0],[1,0.25],[1,0.5],[1,0.75],[1,1],[0.75,1],[0.5,1],[0.25,1],[0,1],[0,0.75],[0,0.5],[0,0.25]];outlineConnect=0;gradientColor=none;html=1;whiteSpace=wrap;fontSize=12;fontStyle=0;container=0;pointerEvents=0;collapsible=0;recursiveResize=0;shape=mxgraph.aws4.group;grIcon=mxgraph.aws4.group_vpc;strokeColor=#248814;fillColor=none;verticalAlign=top;align=left;spacingLeft=30;fontColor=#AAB7B8;dashed=0;" parent="1" vertex="1">
                    <mxGeometry x="230" y="230" width="580" height="560" as="geometry"/>
                </mxCell>
                <mxCell id="6X5Q5hGxG2Q4SLFNHHvZ-4" value="Availability Zone 1" style="fillColor=none;strokeColor=#147EBA;dashed=1;verticalAlign=top;fontStyle=0;fontColor=#147EBA;container=0;" parent="1" vertex="1">
                    <mxGeometry x="248.08" y="205.34" width="201.92" height="594.66" as="geometry"/>
                </mxCell>
                <mxCell id="-QjtrjUzRDEMRZ5MF8oH-47" value="VPC 3-tier Architecture - 2022" style="text;html=1;resizable=0;points=[];autosize=1;align=left;verticalAlign=top;spacingTop=-4;fontSize=30;fontStyle=1" parent="1" vertex="1">
                    <mxGeometry x="34" y="20" width="440" height="40" as="geometry"/>
                </mxCell>
                <mxCell id="-QjtrjUzRDEMRZ5MF8oH-48" value="3-tier, 2 Availability Zone with Routing Visualization, with optional Transit Gateway subnets" style="text;html=1;resizable=0;points=[];autosize=1;align=left;verticalAlign=top;spacingTop=-4;fontSize=16;" parent="1" vertex="1">
                    <mxGeometry x="34" y="70" width="650" height="20" as="geometry"/>
                </mxCell>
                <mxCell id="SCVMTBWpLvtzJIhz15lM-1" value="" style="line;strokeWidth=2;html=1;fontSize=14;" parent="1" vertex="1">
                    <mxGeometry x="30" y="95" width="1060" height="10" as="geometry"/>
                </mxCell>
                <mxCell id="6X5Q5hGxG2Q4SLFNHHvZ-7" value="Isolated subnet" style="points=[[0,0],[0.25,0],[0.5,0],[0.75,0],[1,0],[1,0.25],[1,0.5],[1,0.75],[1,1],[0.75,1],[0.5,1],[0.25,1],[0,1],[0,0.75],[0,0.5],[0,0.25]];outlineConnect=0;gradientColor=none;html=1;whiteSpace=wrap;fontSize=12;fontStyle=0;container=0;pointerEvents=0;collapsible=0;recursiveResize=0;shape=mxgraph.aws4.group;grIcon=mxgraph.aws4.group_security_group;grStroke=0;strokeColor=#147EBA;fillColor=#E6F2F8;verticalAlign=top;align=left;spacingLeft=30;fontColor=#147EBA;dashed=0;aspect=fixed;" parent="1" vertex="1">
                    <mxGeometry x="266.8169230769231" y="530.0033333333334" width="162.95788461538464" height="111.4975" as="geometry"/>
                </mxCell>
                <mxCell id="6X5Q5hGxG2Q4SLFNHHvZ-5" value="Public subnet" style="points=[[0,0],[0.25,0],[0.5,0],[0.75,0],[1,0],[1,0.25],[1,0.5],[1,0.75],[1,1],[0.75,1],[0.5,1],[0.25,1],[0,1],[0,0.75],[0,0.5],[0,0.25]];outlineConnect=0;gradientColor=none;html=1;whiteSpace=wrap;fontSize=12;fontStyle=0;container=0;pointerEvents=0;collapsible=0;recursiveResize=0;shape=mxgraph.aws4.group;grIcon=mxgraph.aws4.group_security_group;grStroke=0;strokeColor=#248814;fillColor=#E9F3E6;verticalAlign=top;align=left;spacingLeft=30;fontColor=#248814;dashed=0;aspect=fixed;" parent="1" vertex="1">
                    <mxGeometry x="266.8169230769231" y="263.72352941176473" width="162.95788461538464" height="111.4975" as="geometry"/>
                </mxCell>
                <mxCell id="6X5Q5hGxG2Q4SLFNHHvZ-6" value="Private subnet" style="points=[[0,0],[0.25,0],[0.5,0],[0.75,0],[1,0],[1,0.25],[1,0.5],[1,0.75],[1,1],[0.75,1],[0.5,1],[0.25,1],[0,1],[0,0.75],[0,0.5],[0,0.25]];outlineConnect=0;gradientColor=none;html=1;whiteSpace=wrap;fontSize=12;fontStyle=0;container=0;pointerEvents=0;collapsible=0;recursiveResize=0;shape=mxgraph.aws4.group;grIcon=mxgraph.aws4.group_security_group;grStroke=0;strokeColor=#147EBA;fillColor=#E6F2F8;verticalAlign=top;align=left;spacingLeft=30;fontColor=#147EBA;dashed=0;aspect=fixed;" parent="1" vertex="1">
                    <mxGeometry x="266.8169230769231" y="399.99843137254896" width="162.95788461538464" height="111.4975" as="geometry"/>
                </mxCell>
                <mxCell id="6X5Q5hGxG2Q4SLFNHHvZ-21" value="NAT Gateway" style="sketch=0;outlineConnect=0;fontColor=#232F3E;gradientColor=none;fillColor=#4D27AA;strokeColor=none;dashed=0;verticalLabelPosition=bottom;verticalAlign=top;align=center;html=1;fontSize=12;fontStyle=0;aspect=fixed;pointerEvents=1;shape=mxgraph.aws4.nat_gateway;container=0;" parent="1" vertex="1">
                    <mxGeometry x="331.142125" y="302.31921568627456" width="34.30692307692308" height="34.31" as="geometry"/>
                </mxCell>
                <mxCell id="vB2H2ei6ea2E3o45o9DI-7" value="Users" style="sketch=0;outlineConnect=0;fontColor=#232F3E;gradientColor=none;strokeColor=#232F3E;fillColor=#ffffff;dashed=0;verticalLabelPosition=bottom;verticalAlign=top;align=center;html=1;fontSize=12;fontStyle=0;aspect=fixed;shape=mxgraph.aws4.resourceIcon;resIcon=mxgraph.aws4.users;" parent="1" vertex="1">
                    <mxGeometry x="105" y="113" width="34.30692307692308" height="34.31" as="geometry"/>
                </mxCell>
                <mxCell id="vB2H2ei6ea2E3o45o9DI-23" value="Availability Zone 2" style="fillColor=none;strokeColor=#147EBA;dashed=1;verticalAlign=top;fontStyle=0;fontColor=#147EBA;container=0;" parent="1" vertex="1">
                    <mxGeometry x="590" y="205.34" width="201.92" height="594.66" as="geometry"/>
                </mxCell>
                <mxCell id="vB2H2ei6ea2E3o45o9DI-24" value="Isolated subnet" style="points=[[0,0],[0.25,0],[0.5,0],[0.75,0],[1,0],[1,0.25],[1,0.5],[1,0.75],[1,1],[0.75,1],[0.5,1],[0.25,1],[0,1],[0,0.75],[0,0.5],[0,0.25]];outlineConnect=0;gradientColor=none;html=1;whiteSpace=wrap;fontSize=12;fontStyle=0;container=0;pointerEvents=0;collapsible=0;recursiveResize=0;shape=mxgraph.aws4.group;grIcon=mxgraph.aws4.group_security_group;grStroke=0;strokeColor=#147EBA;fillColor=#E6F2F8;verticalAlign=top;align=left;spacingLeft=30;fontColor=#147EBA;dashed=0;aspect=fixed;" parent="1" vertex="1">
                    <mxGeometry x="608.7369230769232" y="530.0033333333334" width="162.95788461538464" height="111.4975" as="geometry"/>
                </mxCell>
                <mxCell id="vB2H2ei6ea2E3o45o9DI-25" value="Public subnet" style="points=[[0,0],[0.25,0],[0.5,0],[0.75,0],[1,0],[1,0.25],[1,0.5],[1,0.75],[1,1],[0.75,1],[0.5,1],[0.25,1],[0,1],[0,0.75],[0,0.5],[0,0.25]];outlineConnect=0;gradientColor=none;html=1;whiteSpace=wrap;fontSize=12;fontStyle=0;container=0;pointerEvents=0;collapsible=0;recursiveResize=0;shape=mxgraph.aws4.group;grIcon=mxgraph.aws4.group_security_group;grStroke=0;strokeColor=#248814;fillColor=#E9F3E6;verticalAlign=top;align=left;spacingLeft=30;fontColor=#248814;dashed=0;aspect=fixed;" parent="1" vertex="1">
                    <mxGeometry x="608.7369230769232" y="263.72352941176473" width="162.95788461538464" height="111.4975" as="geometry"/>
                </mxCell>
                <mxCell id="vB2H2ei6ea2E3o45o9DI-26" value="Private subnet" style="points=[[0,0],[0.25,0],[0.5,0],[0.75,0],[1,0],[1,0.25],[1,0.5],[1,0.75],[1,1],[0.75,1],[0.5,1],[0.25,1],[0,1],[0,0.75],[0,0.5],[0,0.25]];outlineConnect=0;gradientColor=none;html=1;whiteSpace=wrap;fontSize=12;fontStyle=0;container=0;pointerEvents=0;collapsible=0;recursiveResize=0;shape=mxgraph.aws4.group;grIcon=mxgraph.aws4.group_security_group;grStroke=0;strokeColor=#147EBA;fillColor=#E6F2F8;verticalAlign=top;align=left;spacingLeft=30;fontColor=#147EBA;dashed=0;aspect=fixed;" parent="1" vertex="1">
                    <mxGeometry x="608.7369230769232" y="399.99843137254896" width="162.95788461538464" height="111.4975" as="geometry"/>
                </mxCell>
                <mxCell id="vB2H2ei6ea2E3o45o9DI-27" value="NAT Gateway" style="sketch=0;outlineConnect=0;fontColor=#232F3E;gradientColor=none;fillColor=#4D27AA;strokeColor=none;dashed=0;verticalLabelPosition=bottom;verticalAlign=top;align=center;html=1;fontSize=12;fontStyle=0;aspect=fixed;pointerEvents=1;shape=mxgraph.aws4.nat_gateway;container=0;" parent="1" vertex="1">
                    <mxGeometry x="673.802125" y="302.31921568627456" width="34.30692307692308" height="34.31" as="geometry"/>
                </mxCell>
                <mxCell id="vB2H2ei6ea2E3o45o9DI-33" value="" style="edgeStyle=orthogonalEdgeStyle;html=1;endArrow=block;elbow=vertical;startArrow=none;endFill=1;strokeColor=#3333FF;rounded=0;fontColor=default;" parent="1" source="vB2H2ei6ea2E3o45o9DI-7" target="DQbUGmYIA1iREayXvOX7-11" edge="1">
                    <mxGeometry width="100" relative="1" as="geometry">
                        <mxPoint x="140" y="125" as="sourcePoint"/>
                        <mxPoint x="525" y="135" as="targetPoint"/>
                        <Array as="points"/>
                    </mxGeometry>
                </mxCell>
                <mxCell id="vB2H2ei6ea2E3o45o9DI-34" value="" style="edgeStyle=orthogonalEdgeStyle;html=1;endArrow=block;elbow=vertical;startArrow=none;endFill=1;strokeColor=#3333FF;rounded=0;fontColor=default;entryX=0.901;entryY=0.247;entryDx=0;entryDy=0;entryPerimeter=0;" parent="1" edge="1">
                    <mxGeometry width="100" relative="1" as="geometry">
                        <mxPoint x="490" y="270" as="sourcePoint"/>
                        <mxPoint x="430.00991999999997" y="320.11102000000005" as="targetPoint"/>
                        <Array as="points">
                            <mxPoint x="490" y="270"/>
                            <mxPoint x="490" y="320"/>
                        </Array>
                    </mxGeometry>
                </mxCell>
                <mxCell id="DQbUGmYIA1iREayXvOX7-2" value="Internet Gateway" style="sketch=0;outlineConnect=0;fontColor=#232F3E;gradientColor=none;fillColor=#4D27AA;strokeColor=none;dashed=0;verticalLabelPosition=bottom;verticalAlign=top;align=center;html=1;fontSize=12;fontStyle=0;aspect=fixed;pointerEvents=1;shape=mxgraph.aws4.internet_gateway;" parent="1" vertex="1">
                    <mxGeometry x="504" y="210" width="34.30692307692308" height="34.31" as="geometry"/>
                </mxCell>
                <mxCell id="DQbUGmYIA1iREayXvOX7-3" value="" style="edgeStyle=orthogonalEdgeStyle;html=1;endArrow=block;elbow=vertical;startArrow=none;endFill=1;strokeColor=#3333FF;rounded=0;fontColor=default;" parent="1" edge="1">
                    <mxGeometry width="100" relative="1" as="geometry">
                        <mxPoint x="550" y="270" as="sourcePoint"/>
                        <mxPoint x="610" y="320" as="targetPoint"/>
                        <Array as="points">
                            <mxPoint x="550" y="320"/>
                        </Array>
                    </mxGeometry>
                </mxCell>
                <mxCell id="DQbUGmYIA1iREayXvOX7-7" value="" style="edgeStyle=orthogonalEdgeStyle;html=1;endArrow=block;elbow=vertical;startArrow=none;endFill=1;strokeColor=#006600;rounded=0;exitX=0.475;exitY=0.419;exitDx=0;exitDy=0;exitPerimeter=0;" parent="1" edge="1">
                    <mxGeometry width="100" relative="1" as="geometry">
                        <mxPoint x="343.99199999999996" y="400.03254000000015" as="sourcePoint"/>
                        <mxPoint x="344" y="359" as="targetPoint"/>
                        <Array as="points">
                            <mxPoint x="344" y="390"/>
                            <mxPoint x="344" y="390"/>
                        </Array>
                    </mxGeometry>
                </mxCell>
                <mxCell id="DQbUGmYIA1iREayXvOX7-8" value="" style="edgeStyle=orthogonalEdgeStyle;html=1;endArrow=block;elbow=vertical;startArrow=none;endFill=1;strokeColor=#006600;rounded=0;exitX=0.475;exitY=0.419;exitDx=0;exitDy=0;exitPerimeter=0;" parent="1" edge="1">
                    <mxGeometry width="100" relative="1" as="geometry">
                        <mxPoint x="690.0519999999999" y="400.25254000000007" as="sourcePoint"/>
                        <mxPoint x="690" y="359" as="targetPoint"/>
                        <Array as="points">
                            <mxPoint x="690.06" y="380.22"/>
                            <mxPoint x="690.06" y="380.22"/>
                        </Array>
                    </mxGeometry>
                </mxCell>
                <mxCell id="DQbUGmYIA1iREayXvOX7-9" value="" style="edgeStyle=orthogonalEdgeStyle;html=1;endArrow=block;elbow=vertical;startArrow=none;endFill=1;strokeColor=#006600;rounded=0;" parent="1" edge="1">
                    <mxGeometry width="100" relative="1" as="geometry">
                        <mxPoint x="365.45" y="330" as="sourcePoint"/>
                        <mxPoint x="510" y="270" as="targetPoint"/>
                    </mxGeometry>
                </mxCell>
                <mxCell id="DQbUGmYIA1iREayXvOX7-10" value="" style="edgeStyle=orthogonalEdgeStyle;html=1;endArrow=block;elbow=vertical;startArrow=none;endFill=1;strokeColor=#006600;rounded=0;" parent="1" edge="1">
                    <mxGeometry width="100" relative="1" as="geometry">
                        <mxPoint x="671.8" y="330" as="sourcePoint"/>
                        <mxPoint x="530" y="270" as="targetPoint"/>
                        <Array as="points">
                            <mxPoint x="529.8" y="330"/>
                        </Array>
                    </mxGeometry>
                </mxCell>
                <mxCell id="DQbUGmYIA1iREayXvOX7-11" value="Internet" style="sketch=0;outlineConnect=0;fontColor=#232F3E;gradientColor=none;fillColor=#232F3D;strokeColor=none;dashed=0;verticalLabelPosition=bottom;verticalAlign=top;align=center;html=1;fontSize=12;fontStyle=0;aspect=fixed;pointerEvents=1;shape=mxgraph.aws4.internet_alt2;" parent="1" vertex="1">
                    <mxGeometry x="504" y="112.84" width="34.30692307692308" height="34.31" as="geometry"/>
                </mxCell>
                <mxCell id="DQbUGmYIA1iREayXvOX7-12" value="" style="edgeStyle=orthogonalEdgeStyle;html=1;endArrow=block;elbow=vertical;startArrow=none;endFill=1;strokeColor=#3333FF;rounded=0;" parent="1" edge="1">
                    <mxGeometry width="100" relative="1" as="geometry">
                        <mxPoint x="511.15346153846156" y="171.4633435114726" as="sourcePoint"/>
                        <mxPoint x="511.15346153846156" y="210.0019291119948" as="targetPoint"/>
                    </mxGeometry>
                </mxCell>
                <mxCell id="DQbUGmYIA1iREayXvOX7-13" value="" style="edgeStyle=orthogonalEdgeStyle;html=1;endArrow=block;elbow=vertical;startArrow=none;endFill=1;strokeColor=#006600;rounded=0;" parent="1" edge="1">
                    <mxGeometry width="100" relative="1" as="geometry">
                        <mxPoint x="531.1534615384616" y="210.0019291119948" as="sourcePoint"/>
                        <mxPoint x="531.1534615384616" y="171.4633435114726" as="targetPoint"/>
                    </mxGeometry>
                </mxCell>
                <mxCell id="DQbUGmYIA1iREayXvOX7-20" value="" style="group" parent="1" vertex="1" connectable="0">
                    <mxGeometry x="30" y="349.61" width="170" height="130" as="geometry"/>
                </mxCell>
                <mxCell id="DQbUGmYIA1iREayXvOX7-16" value="VPC Endpoints" style="fillColor=none;strokeColor=#5A6C86;dashed=1;verticalAlign=top;fontStyle=0;fontColor=#5A6C86;spacingLeft=31;align=left;" parent="DQbUGmYIA1iREayXvOX7-20" vertex="1">
                    <mxGeometry width="170" height="130" as="geometry"/>
                </mxCell>
                <mxCell id="DQbUGmYIA1iREayXvOX7-17" value="" style="sketch=0;outlineConnect=0;fontColor=#232F3E;gradientColor=none;fillColor=#4D27AA;strokeColor=none;dashed=0;verticalLabelPosition=bottom;verticalAlign=top;align=center;html=1;fontSize=12;fontStyle=0;aspect=fixed;pointerEvents=1;shape=mxgraph.aws4.endpoint;" parent="DQbUGmYIA1iREayXvOX7-20" vertex="1">
                    <mxGeometry width="26.28" height="26.28" as="geometry"/>
                </mxCell>
                <mxCell id="DQbUGmYIA1iREayXvOX7-18" value="S3" style="sketch=0;points=[[0,0,0],[0.25,0,0],[0.5,0,0],[0.75,0,0],[1,0,0],[0,1,0],[0.25,1,0],[0.5,1,0],[0.75,1,0],[1,1,0],[0,0.25,0],[0,0.5,0],[0,0.75,0],[1,0.25,0],[1,0.5,0],[1,0.75,0]];outlineConnect=0;fontColor=#232F3E;gradientColor=#60A337;gradientDirection=north;fillColor=#277116;strokeColor=#ffffff;dashed=0;verticalLabelPosition=bottom;verticalAlign=top;align=center;html=1;fontSize=12;fontStyle=0;aspect=fixed;shape=mxgraph.aws4.resourceIcon;resIcon=mxgraph.aws4.s3;" parent="DQbUGmYIA1iREayXvOX7-20" vertex="1">
                    <mxGeometry x="31.875" y="47.85000000000002" width="34.30692307692308" height="34.31" as="geometry"/>
                </mxCell>
                <mxCell id="DQbUGmYIA1iREayXvOX7-19" value="DynamoDB" style="sketch=0;points=[[0,0,0],[0.25,0,0],[0.5,0,0],[0.75,0,0],[1,0,0],[0,1,0],[0.25,1,0],[0.5,1,0],[0.75,1,0],[1,1,0],[0,0.25,0],[0,0.5,0],[0,0.75,0],[1,0.25,0],[1,0.5,0],[1,0.75,0]];outlineConnect=0;fontColor=#232F3E;gradientColor=#4D72F3;gradientDirection=north;fillColor=#3334B9;strokeColor=#ffffff;dashed=0;verticalLabelPosition=bottom;verticalAlign=top;align=center;html=1;fontSize=12;fontStyle=0;aspect=fixed;shape=mxgraph.aws4.resourceIcon;resIcon=mxgraph.aws4.dynamodb;" parent="DQbUGmYIA1iREayXvOX7-20" vertex="1">
                    <mxGeometry x="106.25" y="47.85000000000002" width="34.30692307692308" height="34.31" as="geometry"/>
                </mxCell>
                <mxCell id="DQbUGmYIA1iREayXvOX7-22" value="&lt;h1&gt;&lt;font style=&quot;font-size: 16px&quot;&gt;Private Subnets&lt;/font&gt;&lt;/h1&gt;&lt;p&gt;&lt;/p&gt;&lt;ul&gt;&lt;li&gt;&lt;span&gt;Can reach the internet via NAT Gateways in the public subnet&lt;/span&gt;&lt;/li&gt;&lt;li&gt;Resources have only private IP addresses&lt;/li&gt;&lt;li&gt;Resources here can communicate inside the VPC and outside via the NAT Gateways&lt;/li&gt;&lt;/ul&gt;&lt;p&gt;&lt;/p&gt;" style="text;html=1;strokeColor=none;fillColor=none;spacing=5;spacingTop=-20;whiteSpace=wrap;overflow=hidden;rounded=0;" parent="1" vertex="1">
                    <mxGeometry x="840" y="310" width="290" height="145.69" as="geometry"/>
                </mxCell>
                <mxCell id="DQbUGmYIA1iREayXvOX7-23" value="&lt;h1&gt;&lt;font style=&quot;font-size: 16px&quot;&gt;Isolated Subnets&lt;/font&gt;&lt;/h1&gt;&lt;p&gt;&lt;/p&gt;&lt;ul&gt;&lt;li&gt;Used for isolated resources (E.g. Databases)&lt;/li&gt;&lt;li&gt;&lt;b&gt;Cannot &lt;/b&gt;reach the internet&lt;/li&gt;&lt;li&gt;Resources have only private IP addresses&lt;/li&gt;&lt;li&gt;Resources here can only communicate inside the VPC&lt;/li&gt;&lt;/ul&gt;&lt;p&gt;&lt;/p&gt;" style="text;html=1;strokeColor=none;fillColor=none;spacing=5;spacingTop=-20;whiteSpace=wrap;overflow=hidden;rounded=0;" parent="1" vertex="1">
                    <mxGeometry x="840" y="470" width="290" height="145.69" as="geometry"/>
                </mxCell>
                <mxCell id="DQbUGmYIA1iREayXvOX7-24" value="&lt;h1 style=&quot;text-align: center&quot;&gt;&lt;font style=&quot;font-size: 16px&quot;&gt;VPC Endpoints&lt;/font&gt;&lt;/h1&gt;&lt;p&gt;&lt;/p&gt;&lt;ul&gt;&lt;li&gt;Private connectivity to S3 and DynamoDB from inside the VPC&lt;/li&gt;&lt;li&gt;&lt;b&gt;No cost data transfer &lt;/b&gt;to/from S3 and DynamoDB in the VPC's region&lt;/li&gt;&lt;li&gt;Routes added to each subnet's routing table&lt;/li&gt;&lt;/ul&gt;&lt;p&gt;&lt;/p&gt;" style="text;html=1;strokeColor=none;fillColor=none;spacing=5;spacingTop=-20;whiteSpace=wrap;overflow=hidden;rounded=0;align=left;" parent="1" vertex="1">
                    <mxGeometry y="479.61" width="210" height="196.08" as="geometry"/>
                </mxCell>
                <mxCell id="DQbUGmYIA1iREayXvOX7-25" value="Subnets can communicate internally via private IP addresses" style="text;html=1;strokeColor=none;fillColor=none;align=center;verticalAlign=middle;whiteSpace=wrap;rounded=0;fontSize=12;" parent="1" vertex="1">
                    <mxGeometry x="465" y="416.46999999999997" width="110" height="78.56" as="geometry"/>
                </mxCell>
                <mxCell id="DQbUGmYIA1iREayXvOX7-26" value="Legend" style="swimlane;fontStyle=0;childLayout=stackLayout;horizontal=1;startSize=30;horizontalStack=0;resizeParent=1;resizeParentMax=0;resizeLast=0;collapsible=1;marginBottom=0;fontSize=12;" parent="1" vertex="1">
                    <mxGeometry x="29" y="230" width="171" height="90" as="geometry">
                        <mxRectangle x="70" y="230" width="70" height="30" as="alternateBounds"/>
                    </mxGeometry>
                </mxCell>
                <mxCell id="DQbUGmYIA1iREayXvOX7-36" value="" style="edgeStyle=orthogonalEdgeStyle;html=1;endArrow=block;elbow=vertical;startArrow=none;endFill=1;strokeColor=#3333FF;rounded=0;fontSize=12;fontColor=#3333FF;" parent="DQbUGmYIA1iREayXvOX7-26" edge="1">
                    <mxGeometry width="100" relative="1" as="geometry">
                        <mxPoint x="20" y="45" as="sourcePoint"/>
                        <mxPoint x="61" y="45" as="targetPoint"/>
                        <Array as="points">
                            <mxPoint x="40" y="44.75"/>
                        </Array>
                    </mxGeometry>
                </mxCell>
                <mxCell id="DQbUGmYIA1iREayXvOX7-31" value="Incoming Traffic" style="text;strokeColor=none;fillColor=none;align=right;verticalAlign=middle;spacingLeft=4;spacingRight=4;overflow=hidden;points=[[0,0.5],[1,0.5]];portConstraint=eastwest;rotatable=0;fontSize=12;" parent="DQbUGmYIA1iREayXvOX7-26" vertex="1">
                    <mxGeometry y="30" width="171" height="30" as="geometry"/>
                </mxCell>
                <mxCell id="DQbUGmYIA1iREayXvOX7-30" value="Outgoing Traffic" style="text;strokeColor=none;fillColor=none;align=right;verticalAlign=middle;spacingLeft=4;spacingRight=4;overflow=hidden;points=[[0,0.5],[1,0.5]];portConstraint=eastwest;rotatable=0;fontSize=12;" parent="DQbUGmYIA1iREayXvOX7-26" vertex="1">
                    <mxGeometry y="60" width="171" height="30" as="geometry"/>
                </mxCell>
                <mxCell id="DQbUGmYIA1iREayXvOX7-37" value="" style="edgeStyle=orthogonalEdgeStyle;html=1;endArrow=block;elbow=vertical;startArrow=none;endFill=1;strokeColor=#006600;rounded=0;fontSize=12;" parent="DQbUGmYIA1iREayXvOX7-26" edge="1">
                    <mxGeometry width="100" relative="1" as="geometry">
                        <mxPoint x="20" y="75" as="sourcePoint"/>
                        <mxPoint x="61" y="75" as="targetPoint"/>
                        <Array as="points">
                            <mxPoint x="40" y="74.75999999999999"/>
                        </Array>
                    </mxGeometry>
                </mxCell>
                <mxCell id="DQbUGmYIA1iREayXvOX7-21" value="&lt;h1&gt;&lt;font style=&quot;font-size: 16px&quot;&gt;Public Subnets&lt;/font&gt;&lt;/h1&gt;&lt;p&gt;&lt;/p&gt;&lt;ul&gt;&lt;li&gt;Can reach the public internet&lt;/li&gt;&lt;li&gt;Resources deployed here have public &lt;i&gt;&lt;b&gt;and&lt;/b&gt;&amp;nbsp;&lt;/i&gt;private IP addresses&lt;/li&gt;&lt;li&gt;Resources here can communicate inside the VPC and outside via the Internet Gateway&lt;/li&gt;&lt;/ul&gt;&lt;p&gt;&lt;/p&gt;" style="text;html=1;strokeColor=none;fillColor=none;spacing=5;spacingTop=-20;whiteSpace=wrap;overflow=hidden;rounded=0;" parent="1" vertex="1">
                    <mxGeometry x="840" y="142.38" width="280" height="159.94" as="geometry"/>
                </mxCell>
                <mxCell id="5" value="" style="group" parent="1" vertex="1" connectable="0">
                    <mxGeometry x="266.59" y="660" width="163.18" height="110" as="geometry"/>
                </mxCell>
                <mxCell id="2" value="Transit subnet" style="fillColor=#EFF0F3;strokeColor=none;dashed=0;verticalAlign=top;fontStyle=0;fontColor=#666666;spacing=2;spacingLeft=-23;" parent="5" vertex="1">
                    <mxGeometry width="163.18" height="110" as="geometry"/>
                </mxCell>
                <mxCell id="3" value="" style="sketch=0;points=[[0,0,0],[0.25,0,0],[0.5,0,0],[0.75,0,0],[1,0,0],[0,1,0],[0.25,1,0],[0.5,1,0],[0.75,1,0],[1,1,0],[0,0.25,0],[0,0.5,0],[0,0.75,0],[1,0.25,0],[1,0.5,0],[1,0.75,0]];outlineConnect=0;fontColor=#232F3E;gradientColor=#945DF2;gradientDirection=north;fillColor=#5A30B5;strokeColor=#ffffff;dashed=0;verticalLabelPosition=bottom;verticalAlign=top;align=center;html=1;fontSize=12;fontStyle=0;aspect=fixed;shape=mxgraph.aws4.resourceIcon;resIcon=mxgraph.aws4.transit_gateway;" parent="5" vertex="1">
                    <mxGeometry x="0.2300000000000182" width="25" height="25" as="geometry"/>
                </mxCell>
                <mxCell id="11" value="&lt;font style=&quot;font-size: 12px&quot;&gt;Transit GatewayAttachment&lt;/font&gt;" style="sketch=0;outlineConnect=0;fontColor=#232F3E;gradientColor=none;fillColor=#4D27AA;strokeColor=none;dashed=0;verticalLabelPosition=bottom;verticalAlign=top;align=center;html=1;fontSize=12;fontStyle=0;aspect=fixed;pointerEvents=1;shape=mxgraph.aws4.elastic_network_interface;spacing=0;spacingBottom=0;" parent="5" vertex="1">
                    <mxGeometry x="64.59304347826094" y="40.0038582287591" width="34" height="34" as="geometry"/>
                </mxCell>
                <mxCell id="6" value="" style="group" parent="1" vertex="1" connectable="0">
                    <mxGeometry x="610" y="660" width="163.18" height="110" as="geometry"/>
                </mxCell>
                <mxCell id="7" value="Transit subnet" style="fillColor=#EFF0F3;strokeColor=none;dashed=0;verticalAlign=top;fontStyle=0;fontColor=#666666;spacing=2;spacingLeft=-23;" parent="6" vertex="1">
                    <mxGeometry width="163.18" height="110" as="geometry"/>
                </mxCell>
                <mxCell id="8" value="" style="sketch=0;points=[[0,0,0],[0.25,0,0],[0.5,0,0],[0.75,0,0],[1,0,0],[0,1,0],[0.25,1,0],[0.5,1,0],[0.75,1,0],[1,1,0],[0,0.25,0],[0,0.5,0],[0,0.75,0],[1,0.25,0],[1,0.5,0],[1,0.75,0]];outlineConnect=0;fontColor=#232F3E;gradientColor=#945DF2;gradientDirection=north;fillColor=#5A30B5;strokeColor=#ffffff;dashed=0;verticalLabelPosition=bottom;verticalAlign=top;align=center;html=1;fontSize=12;fontStyle=0;aspect=fixed;shape=mxgraph.aws4.resourceIcon;resIcon=mxgraph.aws4.transit_gateway;" parent="6" vertex="1">
                    <mxGeometry x="0.2300000000000182" width="25" height="25" as="geometry"/>
                </mxCell>
                <mxCell id="10" value="&lt;font style=&quot;font-size: 12px&quot;&gt;Transit GatewayAttachment&lt;/font&gt;" style="sketch=0;outlineConnect=0;fontColor=#232F3E;gradientColor=none;fillColor=#4D27AA;strokeColor=none;dashed=0;verticalLabelPosition=bottom;verticalAlign=top;align=center;html=1;fontSize=12;fontStyle=0;aspect=fixed;pointerEvents=1;shape=mxgraph.aws4.elastic_network_interface;spacing=0;" parent="6" vertex="1">
                    <mxGeometry x="64.59304347826091" y="38.0038582287591" width="34" height="34" as="geometry"/>
                </mxCell>
                <mxCell id="12" style="edgeStyle=none;html=1;exitX=0;exitY=0.5;exitDx=0;exitDy=0;exitPerimeter=0;fontSize=12;fontColor=#666666;dashed=1;" parent="1" source="9" target="11" edge="1">
                    <mxGeometry relative="1" as="geometry"/>
                </mxCell>
                <mxCell id="13" style="edgeStyle=none;html=1;exitX=1;exitY=0.5;exitDx=0;exitDy=0;exitPerimeter=0;fontSize=12;fontColor=#666666;dashed=1;" parent="1" source="9" target="10" edge="1">
                    <mxGeometry relative="1" as="geometry"/>
                </mxCell>
                <mxCell id="9" value="Transit Gateway" style="sketch=0;points=[[0,0,0],[0.25,0,0],[0.5,0,0],[0.75,0,0],[1,0,0],[0,1,0],[0.25,1,0],[0.5,1,0],[0.75,1,0],[1,1,0],[0,0.25,0],[0,0.5,0],[0,0.75,0],[1,0.25,0],[1,0.5,0],[1,0.75,0]];outlineConnect=0;fontColor=#232F3E;gradientColor=#945DF2;gradientDirection=north;fillColor=#5A30B5;strokeColor=#ffffff;dashed=0;verticalLabelPosition=bottom;verticalAlign=top;align=center;html=1;fontSize=12;fontStyle=0;aspect=fixed;shape=mxgraph.aws4.resourceIcon;resIcon=mxgraph.aws4.transit_gateway;" parent="1" vertex="1">
                    <mxGeometry x="503" y="700" width="34" height="34" as="geometry"/>
                </mxCell>
                <mxCell id="14" value="&lt;h1&gt;&lt;font style=&quot;font-size: 16px&quot;&gt;Transit Subnets (Optional)&lt;/font&gt;&lt;/h1&gt;&lt;p&gt;&lt;/p&gt;&lt;ul&gt;&lt;li&gt;&lt;span&gt;Dedicated smaller (/28) subnets for Transit Gateway attachements&lt;/span&gt;&lt;/li&gt;&lt;li&gt;&lt;b&gt;Cannot &lt;/b&gt;&lt;span&gt;reach the internet&lt;/span&gt;&lt;br&gt;&lt;/li&gt;&lt;li&gt;Provide optional access to other VPCs attached to the Transit Gateway&lt;/li&gt;&lt;li&gt;Provides optional access to Site-to-Site VPNs attached to the Transit Gateway&lt;/li&gt;&lt;/ul&gt;&lt;p&gt;&lt;/p&gt;" style="text;html=1;strokeColor=none;fillColor=none;spacing=5;spacingTop=-20;whiteSpace=wrap;overflow=hidden;rounded=0;" parent="1" vertex="1">
                    <mxGeometry x="840" y="630" width="290" height="190" as="geometry"/>
                </mxCell>
            </root>
        </mxGraphModel>
    </diagram>
</mxfile>
